<svg id="svg" version="1.1" xmlns="http://www.w3.org/2000/svg" xmlns:xlink="http://www.w3.org/1999/xlink" width="400" height="400" viewBox="0, 0, 400,400"><g id="svgg"><path id="path0" d="M189.800 140.817 C 162.864 143.759,141.060 162.359,134.021 188.400 C 132.345 194.598,132.239 195.597,132.244 205.200 C 132.247 213.172,132.499 216.047,133.557 220.200 C 133.781 221.080,134.076 222.340,134.212 223.000 C 134.349 223.660,134.609 224.560,134.790 225.000 C 134.971 225.440,135.340 226.430,135.610 227.200 C 137.110 231.475,137.061 231.453,139.807 229.069 C 147.037 222.790,158.580 217.537,168.200 216.148 C 171.405 215.685,182.721 215.803,186.102 216.335 L 189.204 216.823 190.502 215.311 C 197.335 207.355,205.102 201.666,215.800 196.784 C 218.091 195.739,223.248 194.095,226.800 193.278 C 236.769 190.984,252.703 191.432,259.300 194.193 C 260.108 194.531,260.253 193.349,259.647 191.360 C 259.452 190.722,259.066 189.390,258.789 188.400 C 252.273 165.142,233.778 147.195,211.179 142.200 C 209.541 141.838,207.570 141.383,206.800 141.188 C 204.716 140.662,193.470 140.417,189.800 140.817 " stroke="none" fill="#fab32b" fill-rule="evenodd"></path><path id="path1" d="M193.200 72.000 C 193.200 72.220,193.014 72.400,192.787 72.400 C 192.559 72.400,191.749 73.024,190.987 73.787 L 189.600 75.173 189.600 91.708 L 189.600 108.244 190.954 109.722 C 191.699 110.535,192.509 111.200,192.754 111.200 C 192.999 111.200,193.200 111.380,193.200 111.600 C 193.200 111.833,194.533 112.000,196.400 112.000 C 198.267 112.000,199.600 111.833,199.600 111.600 C 199.600 111.380,199.878 111.200,200.218 111.200 C 201.018 111.200,202.800 109.418,202.800 108.618 C 202.800 108.278,202.980 108.000,203.200 108.000 C 203.460 108.000,203.600 102.333,203.600 91.800 C 203.600 81.267,203.460 75.600,203.200 75.600 C 202.980 75.600,202.800 75.322,202.800 74.982 C 202.800 74.182,201.018 72.400,200.218 72.400 C 199.878 72.400,199.600 72.220,199.600 72.000 C 199.600 71.767,198.267 71.600,196.400 71.600 C 194.533 71.600,193.200 71.767,193.200 72.000 M131.800 88.400 C 131.664 88.620,131.096 88.800,130.537 88.800 C 126.839 88.800,124.622 95.662,127.018 99.689 C 127.577 100.630,128.138 101.715,128.264 102.100 C 128.390 102.485,128.619 102.800,128.772 102.800 C 128.925 102.800,129.298 103.430,129.600 104.200 C 129.902 104.970,130.296 105.600,130.475 105.600 C 130.654 105.600,130.800 105.870,130.800 106.200 C 130.800 106.530,130.980 106.800,131.200 106.800 C 131.420 106.800,131.600 107.070,131.600 107.400 C 131.600 107.730,131.780 108.000,132.000 108.000 C 132.220 108.000,132.400 108.360,132.400 108.800 C 132.400 109.240,132.580 109.600,132.800 109.600 C 133.020 109.600,133.200 109.920,133.200 110.312 C 133.200 110.703,133.560 111.283,134.000 111.600 C 134.440 111.917,134.800 112.497,134.800 112.888 C 134.800 113.280,134.980 113.600,135.200 113.600 C 135.420 113.600,135.600 113.960,135.600 114.400 C 135.600 114.840,135.780 115.200,136.000 115.200 C 136.220 115.200,136.400 115.436,136.400 115.725 C 136.400 116.013,136.760 116.636,137.200 117.108 C 137.640 117.580,138.000 118.244,138.000 118.583 C 138.000 118.922,138.180 119.200,138.400 119.200 C 138.620 119.200,138.800 119.560,138.800 120.000 C 138.800 120.440,138.980 120.800,139.200 120.800 C 139.420 120.800,139.600 121.070,139.600 121.400 C 139.600 121.730,139.780 122.000,140.000 122.000 C 140.220 122.000,140.400 122.198,140.400 122.440 C 140.400 126.149,150.952 126.193,152.595 122.490 C 152.812 122.001,153.127 121.600,153.295 121.600 C 153.975 121.600,153.608 116.038,152.838 114.667 C 152.418 113.920,151.833 112.880,151.538 112.355 C 151.242 111.830,150.910 111.310,150.799 111.200 C 150.689 111.090,150.329 110.460,149.999 109.800 C 149.670 109.140,149.085 108.251,148.700 107.825 C 148.315 107.398,148.000 106.813,148.000 106.525 C 148.000 106.236,147.820 106.000,147.600 106.000 C 147.380 106.000,147.200 105.640,147.200 105.200 C 147.200 104.760,147.020 104.400,146.800 104.400 C 146.580 104.400,146.400 104.080,146.400 103.688 C 146.400 103.297,146.040 102.717,145.600 102.400 C 145.160 102.083,144.800 101.503,144.800 101.112 C 144.800 100.720,144.620 100.400,144.400 100.400 C 144.180 100.400,144.000 100.040,144.000 99.600 C 144.000 99.160,143.820 98.800,143.600 98.800 C 143.380 98.800,143.200 98.564,143.200 98.275 C 143.200 97.987,142.840 97.364,142.400 96.892 C 141.960 96.420,141.600 95.869,141.600 95.667 C 141.600 93.985,137.400 88.800,136.037 88.800 C 135.603 88.800,135.136 88.620,135.000 88.400 C 134.864 88.180,134.144 88.000,133.400 88.000 C 132.656 88.000,131.936 88.180,131.800 88.400 M257.800 88.400 C 257.664 88.620,257.289 88.800,256.966 88.800 C 256.147 88.800,253.054 91.977,252.371 93.521 C 252.059 94.224,251.669 94.800,251.502 94.800 C 251.336 94.800,251.200 95.078,251.200 95.417 C 251.200 95.756,250.840 96.420,250.400 96.892 C 249.960 97.364,249.600 97.987,249.600 98.275 C 249.600 98.564,249.420 98.800,249.200 98.800 C 248.980 98.800,248.800 99.160,248.800 99.600 C 248.800 100.040,248.620 100.400,248.400 100.400 C 248.180 100.400,248.000 100.636,248.000 100.925 C 248.000 101.213,247.640 101.836,247.200 102.308 C 246.760 102.780,246.400 103.444,246.400 103.783 C 246.400 104.122,246.220 104.400,246.000 104.400 C 245.780 104.400,245.600 104.745,245.600 105.167 C 245.600 105.588,245.465 105.993,245.300 106.067 C 244.911 106.239,242.819 109.721,241.797 111.895 C 241.359 112.828,240.865 113.593,240.700 113.595 C 240.535 113.598,240.400 113.960,240.400 114.400 C 240.400 114.840,240.220 115.200,240.000 115.200 C 239.418 115.200,239.502 121.039,240.100 122.090 C 242.523 126.350,252.800 126.400,252.800 122.153 C 252.800 121.849,252.945 121.600,253.121 121.600 C 253.298 121.600,253.883 120.703,254.421 119.606 C 254.960 118.510,255.535 117.610,255.700 117.606 C 255.865 117.603,256.000 117.240,256.000 116.800 C 256.000 116.360,256.158 116.000,256.351 116.000 C 256.544 116.000,257.081 115.145,257.545 114.100 C 258.566 111.802,259.692 109.848,260.100 109.667 C 260.265 109.593,260.400 109.188,260.400 108.767 C 260.400 108.345,260.580 108.000,260.800 108.000 C 261.020 108.000,261.200 107.730,261.200 107.400 C 261.200 107.070,261.380 106.800,261.600 106.800 C 261.820 106.800,262.000 106.530,262.000 106.200 C 262.000 105.870,262.180 105.600,262.400 105.600 C 262.620 105.600,262.800 105.330,262.800 105.000 C 262.800 104.670,262.980 104.400,263.200 104.400 C 263.420 104.400,263.600 104.040,263.600 103.600 C 263.600 103.160,263.780 102.800,264.000 102.800 C 264.220 102.800,264.400 102.522,264.400 102.183 C 264.400 101.844,264.760 101.180,265.200 100.708 C 265.640 100.236,266.000 99.613,266.000 99.325 C 266.000 99.036,266.180 98.800,266.400 98.800 C 266.633 98.800,266.800 97.463,266.800 95.589 L 266.800 92.379 265.011 90.589 C 263.836 89.415,262.874 88.800,262.211 88.800 C 261.655 88.800,261.200 88.620,261.200 88.400 C 261.200 88.180,260.491 88.000,259.624 88.000 C 258.757 88.000,257.936 88.180,257.800 88.400 M185.800 127.200 C 185.664 127.420,184.584 127.600,183.400 127.600 C 182.216 127.600,181.136 127.780,181.000 128.000 C 180.864 128.220,180.144 128.400,179.400 128.400 C 178.656 128.400,177.936 128.580,177.800 128.800 C 177.664 129.020,176.933 129.200,176.176 129.200 C 175.419 129.200,174.800 129.380,174.800 129.600 C 174.800 129.820,174.271 130.000,173.624 130.000 C 172.977 130.000,172.336 130.180,172.200 130.400 C 172.064 130.620,171.434 130.800,170.800 130.800 C 170.166 130.800,169.536 130.980,169.400 131.200 C 169.264 131.420,168.803 131.600,168.376 131.600 C 167.949 131.600,167.600 131.780,167.600 132.000 C 167.600 132.220,167.251 132.400,166.824 132.400 C 166.397 132.400,165.936 132.580,165.800 132.800 C 165.664 133.020,165.113 133.200,164.576 133.200 C 164.039 133.200,163.600 133.380,163.600 133.600 C 163.600 133.820,163.240 134.000,162.800 134.000 C 162.360 134.000,162.000 134.180,162.000 134.400 C 162.000 134.620,161.640 134.800,161.200 134.800 C 160.760 134.800,160.400 134.946,160.400 135.125 C 160.400 135.304,159.770 135.698,159.000 136.000 C 158.230 136.302,157.600 136.696,157.600 136.875 C 157.600 137.054,157.280 137.200,156.888 137.200 C 156.497 137.200,155.917 137.560,155.600 138.000 C 155.283 138.440,154.743 138.800,154.400 138.800 C 154.057 138.800,153.517 139.160,153.200 139.600 C 152.883 140.040,152.303 140.400,151.912 140.400 C 151.520 140.400,151.200 140.558,151.200 140.750 C 151.200 140.943,150.691 141.348,150.068 141.650 C 147.574 142.862,135.600 154.116,135.600 155.249 C 135.600 155.485,135.060 156.183,134.400 156.800 C 133.740 157.417,133.200 158.091,133.200 158.298 C 133.200 158.506,132.840 159.002,132.400 159.400 C 131.960 159.798,131.600 160.284,131.600 160.479 C 131.600 160.674,131.240 161.220,130.800 161.692 C 130.360 162.164,130.000 162.787,130.000 163.075 C 130.000 163.364,129.847 163.600,129.660 163.600 C 129.473 163.600,128.711 164.815,127.968 166.300 C 127.224 167.785,126.523 169.090,126.408 169.200 C 126.132 169.466,125.172 171.969,124.913 173.100 C 124.799 173.595,124.548 174.000,124.353 174.000 C 124.159 174.000,124.000 174.439,124.000 174.976 C 124.000 175.513,123.820 176.064,123.600 176.200 C 123.380 176.336,123.200 176.887,123.200 177.424 C 123.200 177.961,123.020 178.400,122.800 178.400 C 122.580 178.400,122.400 178.749,122.400 179.176 C 122.400 179.603,122.220 180.064,122.000 180.200 C 121.780 180.336,121.600 181.067,121.600 181.824 C 121.600 182.581,121.420 183.200,121.200 183.200 C 120.980 183.200,120.800 183.729,120.800 184.376 C 120.800 185.023,120.620 185.664,120.400 185.800 C 120.180 185.936,120.000 186.847,120.000 187.824 C 120.000 188.801,119.820 189.600,119.600 189.600 C 119.374 189.600,119.200 190.733,119.200 192.200 C 119.200 193.667,119.026 194.800,118.800 194.800 C 118.543 194.800,118.400 198.659,118.400 205.576 C 118.400 212.329,118.549 216.445,118.800 216.600 C 119.020 216.736,119.200 217.816,119.200 219.000 C 119.200 220.184,119.380 221.264,119.600 221.400 C 119.820 221.536,120.000 222.267,120.000 223.024 C 120.000 223.781,120.180 224.400,120.400 224.400 C 120.620 224.400,120.800 225.120,120.800 226.000 C 120.800 226.880,120.980 227.600,121.200 227.600 C 121.420 227.600,121.600 228.140,121.600 228.800 C 121.600 229.460,121.780 230.000,122.000 230.000 C 122.220 230.000,122.400 230.540,122.400 231.200 C 122.400 231.860,122.580 232.400,122.800 232.400 C 123.020 232.400,123.200 232.940,123.200 233.600 C 123.200 234.260,123.380 234.800,123.600 234.800 C 123.820 234.800,124.000 235.160,124.000 235.600 C 124.000 236.040,124.180 236.400,124.400 236.400 C 124.620 236.400,124.800 236.765,124.800 237.211 C 124.800 237.658,125.337 239.086,125.993 240.385 L 127.185 242.748 125.993 245.151 C 125.337 246.473,124.800 247.835,124.800 248.178 C 124.800 248.520,124.620 248.800,124.400 248.800 C 124.180 248.800,124.000 249.149,124.000 249.576 C 124.000 250.003,123.820 250.464,123.600 250.600 C 123.380 250.736,123.200 251.276,123.200 251.800 C 123.200 252.324,123.020 252.864,122.800 253.000 C 122.580 253.136,122.400 253.676,122.400 254.200 C 122.400 254.724,122.220 255.264,122.000 255.400 C 121.780 255.536,121.600 256.256,121.600 257.000 C 121.600 257.744,121.420 258.464,121.200 258.600 C 120.980 258.736,120.800 259.636,120.800 260.600 C 120.800 261.564,120.620 262.464,120.400 262.600 C 120.152 262.753,120.000 266.396,120.000 272.200 C 120.000 278.004,120.152 281.647,120.400 281.800 C 120.620 281.936,120.800 282.847,120.800 283.824 C 120.800 284.801,120.980 285.600,121.200 285.600 C 121.420 285.600,121.600 286.320,121.600 287.200 C 121.600 288.080,121.780 288.800,122.000 288.800 C 122.220 288.800,122.400 289.250,122.400 289.800 C 122.400 290.350,122.580 290.800,122.800 290.800 C 123.020 290.800,123.200 291.340,123.200 292.000 C 123.200 292.660,123.380 293.200,123.600 293.200 C 123.820 293.200,124.000 293.560,124.000 294.000 C 124.000 294.440,124.180 294.800,124.400 294.800 C 124.620 294.800,124.801 295.115,124.802 295.500 C 124.804 295.885,125.074 296.716,125.402 297.346 C 125.731 297.976,126.000 298.741,126.000 299.046 C 126.000 299.351,126.135 299.603,126.300 299.606 C 126.465 299.610,127.040 300.510,127.579 301.606 C 128.117 302.703,128.702 303.600,128.879 303.600 C 129.055 303.600,129.200 303.843,129.200 304.141 C 129.200 304.438,129.740 305.246,130.400 305.937 C 131.060 306.628,131.600 307.286,131.600 307.401 C 131.600 307.793,140.792 316.800,141.192 316.800 C 141.413 316.800,142.109 317.340,142.740 318.000 C 143.371 318.660,144.077 319.200,144.310 319.200 C 144.543 319.200,144.793 319.335,144.867 319.500 C 145.034 319.876,147.164 321.175,148.100 321.471 C 148.485 321.593,148.800 321.852,148.800 322.047 C 148.800 322.241,149.160 322.400,149.600 322.400 C 150.040 322.400,150.400 322.580,150.400 322.800 C 150.400 323.020,150.760 323.200,151.200 323.200 C 151.640 323.200,152.000 323.340,152.000 323.511 C 152.000 323.851,156.232 325.200,157.296 325.200 C 157.657 325.200,158.064 325.380,158.200 325.600 C 158.336 325.820,158.887 326.000,159.424 326.000 C 159.961 326.000,160.400 326.180,160.400 326.400 C 160.400 326.620,161.109 326.800,161.976 326.800 C 162.843 326.800,163.664 326.980,163.800 327.200 C 163.936 327.420,165.016 327.600,166.200 327.600 C 167.384 327.600,168.464 327.780,168.600 328.000 C 168.942 328.554,297.200 328.554,297.200 328.000 C 297.200 327.780,298.089 327.600,299.176 327.600 C 300.263 327.600,301.264 327.420,301.400 327.200 C 301.536 326.980,302.267 326.800,303.024 326.800 C 303.781 326.800,304.400 326.620,304.400 326.400 C 304.400 326.180,304.861 326.000,305.424 326.000 C 306.004 326.000,306.340 325.827,306.200 325.600 C 306.063 325.378,306.363 325.199,306.876 325.198 C 307.384 325.196,308.316 324.926,308.946 324.598 C 309.576 324.269,310.341 324.000,310.646 324.000 C 310.951 324.000,311.200 323.820,311.200 323.600 C 311.200 323.380,311.560 323.200,312.000 323.200 C 312.440 323.200,312.800 323.020,312.800 322.800 C 312.800 322.580,313.120 322.400,313.512 322.400 C 313.903 322.400,314.483 322.040,314.800 321.600 C 315.117 321.160,315.657 320.800,316.000 320.800 C 316.343 320.800,316.883 320.440,317.200 320.000 C 317.517 319.560,317.993 319.200,318.258 319.200 C 319.095 319.200,327.600 310.345,327.600 309.473 C 327.600 309.200,327.960 308.717,328.400 308.400 C 328.840 308.083,329.200 307.633,329.200 307.400 C 329.200 307.167,329.560 306.717,330.000 306.400 C 330.440 306.083,330.800 305.503,330.800 305.112 C 330.800 304.720,330.980 304.400,331.200 304.400 C 331.420 304.400,331.600 304.040,331.600 303.600 C 331.600 303.160,331.780 302.800,332.000 302.800 C 332.220 302.800,332.400 302.440,332.400 302.000 C 332.400 301.560,332.580 301.200,332.800 301.200 C 333.020 301.200,333.200 300.840,333.200 300.400 C 333.200 299.960,333.380 299.600,333.600 299.600 C 333.820 299.600,334.000 299.251,334.000 298.824 C 334.000 298.397,334.180 297.936,334.400 297.800 C 334.620 297.664,334.800 297.113,334.800 296.576 C 334.800 296.039,334.980 295.600,335.200 295.600 C 335.420 295.600,335.600 294.981,335.600 294.224 C 335.600 293.467,335.780 292.736,336.000 292.600 C 336.220 292.464,336.400 291.769,336.400 291.056 C 336.400 290.343,336.569 289.589,336.774 289.380 C 336.980 289.171,337.191 286.983,337.242 284.518 C 337.293 282.053,337.485 280.129,337.668 280.242 C 337.850 280.355,338.000 280.087,338.000 279.647 C 338.000 279.207,337.820 278.736,337.600 278.600 C 337.380 278.464,337.200 276.833,337.200 274.976 C 337.200 272.992,337.035 271.600,336.800 271.600 C 336.580 271.600,336.400 270.801,336.400 269.824 C 336.400 268.847,336.220 267.936,336.000 267.800 C 335.780 267.664,335.600 267.023,335.600 266.376 C 335.600 265.729,335.420 265.200,335.200 265.200 C 334.980 265.200,334.800 264.660,334.800 264.000 C 334.800 263.340,334.620 262.800,334.400 262.800 C 334.180 262.800,334.000 262.440,334.000 262.000 C 334.000 261.560,333.820 261.200,333.600 261.200 C 333.380 261.200,333.200 260.750,333.200 260.200 C 333.200 259.650,333.020 259.200,332.800 259.200 C 332.580 259.200,332.400 258.840,332.400 258.400 C 332.400 257.960,332.220 257.600,332.000 257.600 C 331.780 257.600,331.600 257.364,331.600 257.075 C 331.600 256.787,331.240 256.164,330.800 255.692 C 330.360 255.220,330.000 254.596,330.000 254.305 C 330.000 254.014,329.640 253.517,329.200 253.200 C 328.760 252.883,328.400 252.393,328.400 252.112 C 328.400 251.831,327.680 250.859,326.800 249.952 C 325.920 249.045,325.200 248.139,325.200 247.938 C 325.200 247.465,323.126 245.418,320.600 243.399 C 319.500 242.519,318.540 241.665,318.467 241.500 C 318.393 241.335,318.112 241.200,317.842 241.200 C 317.572 241.200,317.002 240.885,316.575 240.500 C 316.149 240.115,315.305 239.545,314.700 239.232 C 314.095 238.920,313.600 238.515,313.600 238.332 C 313.600 238.150,313.240 238.000,312.800 238.000 C 312.360 238.000,312.000 237.820,312.000 237.600 C 312.000 237.380,311.640 237.200,311.200 237.200 C 310.760 237.200,310.400 237.020,310.400 236.800 C 310.400 236.580,310.040 236.400,309.600 236.400 C 309.160 236.400,308.800 236.220,308.800 236.000 C 308.800 235.780,308.440 235.600,308.000 235.600 C 307.560 235.600,307.200 235.420,307.200 235.200 C 307.200 234.980,306.750 234.800,306.200 234.800 C 305.650 234.800,305.200 234.620,305.200 234.400 C 305.200 234.180,304.660 234.000,304.000 234.000 C 303.067 234.000,302.800 233.822,302.800 233.200 C 302.800 232.760,302.620 232.400,302.400 232.400 C 302.180 232.400,302.000 232.040,302.000 231.600 C 302.000 231.160,301.820 230.800,301.600 230.800 C 301.380 230.800,301.200 230.547,301.200 230.238 C 301.200 229.572,299.532 226.259,299.100 226.067 C 298.935 225.993,298.800 225.678,298.800 225.367 C 298.800 225.055,298.620 224.800,298.400 224.800 C 298.180 224.800,298.000 224.440,298.000 224.000 C 298.000 223.560,297.820 223.200,297.600 223.200 C 297.380 223.200,297.200 222.964,297.200 222.675 C 297.200 222.387,296.840 221.764,296.400 221.292 C 295.960 220.820,295.600 220.228,295.600 219.977 C 295.600 219.726,295.060 219.017,294.400 218.400 C 293.740 217.783,293.200 217.087,293.200 216.853 C 293.200 215.822,281.798 204.400,280.768 204.400 C 280.522 204.400,279.817 203.860,279.200 203.200 C 278.583 202.540,277.791 202.000,277.440 202.000 C 277.088 202.000,276.800 201.850,276.800 201.668 C 276.800 201.485,276.372 201.106,275.850 200.827 C 275.030 200.388,274.866 199.926,274.650 197.459 C 274.512 195.887,274.211 193.520,273.981 192.200 C 273.751 190.880,273.463 189.035,273.341 188.100 C 273.219 187.165,272.958 186.400,272.760 186.400 C 272.562 186.400,272.400 185.680,272.400 184.800 C 272.400 183.920,272.220 183.200,272.000 183.200 C 271.780 183.200,271.600 182.660,271.600 182.000 C 271.600 181.340,271.420 180.800,271.200 180.800 C 270.980 180.800,270.800 180.260,270.800 179.600 C 270.800 178.940,270.620 178.400,270.400 178.400 C 270.180 178.400,270.000 177.950,270.000 177.400 C 270.000 176.850,269.820 176.400,269.600 176.400 C 269.380 176.400,269.200 176.040,269.200 175.600 C 269.200 175.160,269.020 174.800,268.800 174.800 C 268.580 174.800,268.400 174.260,268.400 173.600 C 268.400 172.940,268.220 172.400,268.000 172.400 C 267.780 172.400,267.600 172.040,267.600 171.600 C 267.600 171.160,267.420 170.800,267.200 170.800 C 266.980 170.800,266.800 170.440,266.800 170.000 C 266.800 169.560,266.620 169.200,266.400 169.200 C 266.180 169.200,266.000 168.922,266.000 168.583 C 266.000 168.244,265.640 167.580,265.200 167.108 C 264.760 166.636,264.400 166.013,264.400 165.725 C 264.400 165.436,264.220 165.200,264.000 165.200 C 263.780 165.200,263.600 164.840,263.600 164.400 C 263.600 163.960,263.450 163.600,263.268 163.600 C 263.085 163.600,262.681 163.105,262.370 162.500 C 262.060 161.895,261.489 161.109,261.103 160.753 C 260.716 160.397,260.400 159.942,260.400 159.741 C 260.400 159.541,260.040 159.117,259.600 158.800 C 259.160 158.483,258.800 157.986,258.800 157.695 C 258.800 157.127,258.669 156.942,256.746 154.800 C 256.055 154.030,255.225 152.997,254.901 152.503 C 254.577 152.010,254.124 151.723,253.894 151.865 C 253.665 152.007,253.589 151.942,253.726 151.720 C 254.074 151.157,250.489 147.498,249.928 147.844 C 249.663 148.008,249.587 147.945,249.743 147.692 C 249.889 147.455,249.422 146.849,248.705 146.346 C 247.987 145.843,246.948 144.956,246.395 144.375 C 245.842 143.794,244.762 142.995,243.995 142.600 C 243.228 142.205,242.309 141.548,241.953 141.141 C 241.597 140.733,241.185 140.400,241.036 140.400 C 240.888 140.400,240.380 140.040,239.908 139.600 C 239.436 139.160,238.813 138.800,238.525 138.800 C 238.236 138.800,238.000 138.620,238.000 138.400 C 238.000 138.180,237.764 138.000,237.475 138.000 C 237.187 138.000,236.564 137.640,236.092 137.200 C 235.620 136.760,234.956 136.400,234.617 136.400 C 234.278 136.400,234.000 136.220,234.000 136.000 C 234.000 135.780,233.640 135.600,233.200 135.600 C 232.760 135.600,232.400 135.420,232.400 135.200 C 232.400 134.980,232.040 134.800,231.600 134.800 C 231.160 134.800,230.800 134.620,230.800 134.400 C 230.800 134.180,230.440 134.000,230.000 134.000 C 229.560 134.000,229.200 133.820,229.200 133.600 C 229.200 133.380,228.840 133.200,228.400 133.200 C 227.960 133.200,227.600 133.020,227.600 132.800 C 227.600 132.580,227.060 132.400,226.400 132.400 C 225.740 132.400,225.200 132.220,225.200 132.000 C 225.200 131.780,224.840 131.600,224.400 131.600 C 223.960 131.600,223.600 131.420,223.600 131.200 C 223.600 130.980,223.161 130.800,222.624 130.800 C 222.087 130.800,221.536 130.620,221.400 130.400 C 221.264 130.180,220.724 130.000,220.200 130.000 C 219.676 130.000,219.136 129.820,219.000 129.600 C 218.864 129.380,218.133 129.200,217.376 129.200 C 216.619 129.200,216.000 129.020,216.000 128.800 C 216.000 128.580,215.291 128.400,214.424 128.400 C 213.557 128.400,212.736 128.220,212.600 128.000 C 212.464 127.780,211.373 127.600,210.176 127.600 C 208.979 127.600,208.000 127.420,208.000 127.200 C 208.000 126.943,204.075 126.800,197.024 126.800 C 190.137 126.800,185.955 126.949,185.800 127.200 M81.700 136.620 C 80.615 137.744,80.000 138.746,80.000 139.391 C 80.000 139.946,79.820 140.400,79.600 140.400 C 79.380 140.400,79.200 141.210,79.200 142.200 C 79.200 143.190,79.380 144.000,79.600 144.000 C 79.820 144.000,80.000 144.290,80.000 144.644 C 80.000 145.463,83.358 148.800,84.181 148.800 C 84.521 148.800,84.800 148.980,84.800 149.200 C 84.800 149.420,85.078 149.600,85.417 149.600 C 85.756 149.600,86.420 149.960,86.892 150.400 C 87.364 150.840,87.987 151.200,88.275 151.200 C 88.564 151.200,88.800 151.380,88.800 151.600 C 88.800 151.820,89.160 152.000,89.600 152.000 C 90.040 152.000,90.400 152.180,90.400 152.400 C 90.400 152.620,90.678 152.800,91.017 152.800 C 91.356 152.800,91.994 153.136,92.434 153.546 C 92.875 153.957,94.082 154.719,95.118 155.241 C 96.153 155.762,97.090 156.306,97.200 156.448 C 97.310 156.591,98.390 157.200,99.600 157.802 C 100.810 158.404,102.204 159.100,102.697 159.349 C 103.190 159.597,103.595 159.935,103.597 160.100 C 103.599 160.265,103.960 160.400,104.400 160.400 C 104.840 160.400,105.200 160.580,105.200 160.800 C 105.200 161.020,105.560 161.200,106.000 161.200 C 106.440 161.200,106.800 161.380,106.800 161.600 C 106.800 161.831,108.067 162.000,109.800 162.000 C 111.533 162.000,112.800 161.831,112.800 161.600 C 112.800 161.380,113.078 161.200,113.418 161.200 C 114.218 161.200,116.000 159.418,116.000 158.618 C 116.000 158.278,116.180 158.000,116.400 158.000 C 116.632 158.000,116.800 156.693,116.800 154.878 C 116.800 151.592,115.259 148.800,113.446 148.800 C 113.091 148.800,112.800 148.642,112.800 148.449 C 112.800 148.255,112.260 147.873,111.600 147.600 C 110.940 147.327,110.400 146.945,110.400 146.751 C 110.400 146.558,110.040 146.400,109.600 146.400 C 109.160 146.400,108.800 146.220,108.800 146.000 C 108.800 145.780,108.607 145.600,108.372 145.600 C 108.137 145.600,107.192 145.088,106.272 144.463 C 105.352 143.837,103.835 142.992,102.900 142.586 C 101.965 142.179,101.200 141.701,101.200 141.523 C 101.200 141.345,100.840 141.200,100.400 141.200 C 99.960 141.200,99.600 141.020,99.600 140.800 C 99.600 140.580,99.240 140.400,98.800 140.400 C 98.360 140.400,98.000 140.220,98.000 140.000 C 98.000 139.780,97.764 139.600,97.475 139.600 C 97.187 139.600,96.564 139.240,96.092 138.800 C 95.620 138.360,94.956 138.000,94.617 138.000 C 94.278 138.000,94.000 137.820,94.000 137.600 C 94.000 137.380,93.722 137.200,93.383 137.200 C 93.044 137.200,92.380 136.840,91.908 136.400 C 91.436 135.960,90.813 135.600,90.525 135.600 C 90.236 135.600,90.000 135.420,90.000 135.200 C 90.000 134.963,88.653 134.812,86.700 134.829 L 83.400 134.858 81.700 136.620 M302.800 135.200 C 302.800 135.420,302.522 135.600,302.183 135.600 C 301.844 135.600,301.180 135.960,300.708 136.400 C 300.236 136.840,299.613 137.200,299.325 137.200 C 299.036 137.200,298.800 137.380,298.800 137.600 C 298.800 137.820,298.440 138.000,298.000 138.000 C 297.560 138.000,297.200 138.180,297.200 138.400 C 297.200 138.620,296.964 138.800,296.675 138.800 C 296.387 138.800,295.764 139.160,295.292 139.600 C 294.820 140.040,294.156 140.400,293.817 140.400 C 293.478 140.400,293.200 140.580,293.200 140.800 C 293.200 141.020,292.930 141.200,292.600 141.200 C 292.270 141.200,292.000 141.380,292.000 141.600 C 292.000 141.820,291.653 142.000,291.229 142.000 C 290.804 142.000,290.187 142.270,289.857 142.600 C 289.527 142.930,288.974 143.200,288.629 143.200 C 288.283 143.200,288.000 143.359,288.000 143.553 C 288.000 143.748,287.685 144.007,287.300 144.129 C 286.364 144.425,284.234 145.724,284.067 146.100 C 283.993 146.265,283.588 146.400,283.167 146.400 C 282.745 146.400,282.400 146.580,282.400 146.800 C 282.400 147.020,282.164 147.200,281.875 147.200 C 281.587 147.200,280.964 147.560,280.492 148.000 C 280.020 148.440,279.438 148.800,279.199 148.800 C 278.657 148.800,277.054 150.378,276.451 151.504 C 275.890 152.552,275.847 158.000,276.400 158.000 C 276.620 158.000,276.800 158.278,276.800 158.618 C 276.800 159.292,278.135 160.708,279.517 161.500 C 280.560 162.098,286.400 162.183,286.400 161.600 C 286.400 161.380,286.760 161.200,287.200 161.200 C 287.640 161.200,288.000 161.020,288.000 160.800 C 288.000 160.580,288.270 160.400,288.600 160.400 C 288.930 160.400,289.200 160.220,289.200 160.000 C 289.200 159.780,289.470 159.600,289.800 159.600 C 290.130 159.600,290.402 159.465,290.405 159.300 C 290.408 159.135,291.578 158.460,293.005 157.800 C 294.432 157.140,295.600 156.465,295.600 156.300 C 295.600 156.135,295.960 156.000,296.400 156.000 C 296.840 156.000,297.200 155.820,297.200 155.600 C 297.200 155.380,297.436 155.200,297.725 155.200 C 298.013 155.200,298.636 154.840,299.108 154.400 C 299.580 153.960,300.244 153.600,300.583 153.600 C 300.922 153.600,301.200 153.420,301.200 153.200 C 301.200 152.980,301.560 152.800,302.000 152.800 C 302.440 152.800,302.800 152.620,302.800 152.400 C 302.800 152.180,303.036 152.000,303.325 152.000 C 303.613 152.000,304.236 151.640,304.708 151.200 C 305.180 150.760,305.844 150.400,306.183 150.400 C 306.522 150.400,306.800 150.220,306.800 150.000 C 306.800 149.780,307.070 149.600,307.400 149.600 C 307.730 149.600,308.000 149.420,308.000 149.200 C 308.000 148.980,308.275 148.800,308.611 148.800 C 309.391 148.800,312.800 145.410,312.800 144.634 C 312.800 144.311,312.980 143.936,313.200 143.800 C 313.420 143.664,313.600 142.843,313.600 141.976 C 313.600 141.109,313.420 140.400,313.200 140.400 C 312.980 140.400,312.800 139.945,312.800 139.389 C 312.800 138.726,312.185 137.764,311.011 136.589 L 309.221 134.800 306.011 134.800 C 304.137 134.800,302.800 134.967,302.800 135.200 M203.600 140.398 C 209.242 141.038,210.817 141.304,211.032 141.652 C 211.150 141.843,211.856 142.000,212.600 142.000 C 213.344 142.000,214.064 142.180,214.200 142.400 C 214.336 142.620,214.876 142.800,215.400 142.800 C 215.924 142.800,216.464 142.980,216.600 143.200 C 216.736 143.420,217.169 143.600,217.562 143.600 C 217.955 143.600,218.800 143.850,219.439 144.156 C 220.077 144.462,221.320 145.019,222.200 145.393 C 237.615 151.946,250.585 165.331,256.896 181.200 C 257.114 181.750,257.452 182.513,257.647 182.895 C 257.841 183.277,258.000 183.864,258.000 184.200 C 258.000 184.536,258.162 185.123,258.361 185.505 C 258.560 185.887,258.932 187.010,259.188 188.000 C 259.444 188.990,259.822 190.353,260.027 191.028 C 260.232 191.704,260.400 192.850,260.400 193.575 C 260.400 195.030,260.687 195.002,256.600 193.954 C 252.465 192.895,249.956 192.681,241.400 192.659 C 235.429 192.643,231.358 192.813,229.800 193.141 C 228.480 193.419,226.724 193.745,225.897 193.865 C 225.071 193.986,224.295 194.245,224.174 194.442 C 224.052 194.639,223.459 194.800,222.856 194.800 C 222.253 194.800,221.589 194.943,221.380 195.118 C 221.171 195.293,220.280 195.665,219.400 195.945 C 217.630 196.507,217.651 196.498,212.695 198.765 C 205.063 202.255,192.536 212.130,190.112 216.567 C 189.703 217.315,189.571 217.318,184.692 216.667 C 168.877 214.558,149.653 219.872,140.800 228.800 C 137.075 232.557,136.888 232.481,134.849 226.390 C 132.300 218.772,131.461 213.526,131.461 205.200 C 131.461 196.886,132.286 191.713,134.845 184.000 C 135.930 180.728,138.621 174.549,139.200 174.000 C 139.316 173.890,139.842 172.945,140.368 171.900 C 140.895 170.855,141.434 170.000,141.565 170.000 C 141.697 170.000,142.025 169.505,142.294 168.900 C 142.564 168.295,143.423 167.080,144.203 166.200 C 144.984 165.320,145.910 164.134,146.260 163.564 C 149.730 157.921,168.847 144.400,173.355 144.400 C 173.684 144.400,174.064 144.220,174.200 144.000 C 174.336 143.780,174.876 143.600,175.400 143.600 C 175.924 143.600,176.464 143.420,176.600 143.200 C 176.736 142.980,177.276 142.800,177.800 142.800 C 178.324 142.800,178.864 142.620,179.000 142.400 C 179.136 142.180,179.831 142.000,180.544 142.000 C 181.257 142.000,182.011 141.838,182.220 141.641 C 182.661 141.224,184.648 140.919,190.131 140.425 C 192.293 140.231,194.183 139.946,194.331 139.794 C 194.595 139.522,197.619 139.719,203.600 140.398 M66.800 198.400 C 66.800 198.620,66.522 198.800,66.182 198.800 C 65.842 198.800,65.167 199.215,64.682 199.722 C 61.816 202.719,61.972 207.599,65.032 210.659 L 66.373 212.000 82.792 212.000 C 95.195 212.000,99.424 211.878,100.083 211.500 C 101.465 210.708,102.800 209.292,102.800 208.618 C 102.800 208.278,102.980 208.000,103.200 208.000 C 103.431 208.000,103.600 206.733,103.600 205.000 C 103.600 203.267,103.431 202.000,103.200 202.000 C 102.980 202.000,102.800 201.722,102.800 201.382 C 102.800 200.582,101.018 198.800,100.218 198.800 C 99.878 198.800,99.600 198.620,99.600 198.400 C 99.600 198.140,93.867 198.000,83.200 198.000 C 72.533 198.000,66.800 198.140,66.800 198.400 M293.024 198.524 C 291.676 199.351,290.400 200.740,290.400 201.382 C 290.400 201.722,290.220 202.000,290.000 202.000 C 289.769 202.000,289.600 203.267,289.600 205.000 C 289.600 206.733,289.769 208.000,290.000 208.000 C 290.220 208.000,290.400 208.276,290.400 208.613 C 290.400 208.951,291.024 209.851,291.787 210.613 L 293.173 212.000 309.800 212.000 L 326.427 212.000 327.813 210.613 C 328.576 209.851,329.200 208.951,329.200 208.613 C 329.200 208.276,329.380 208.000,329.600 208.000 C 329.831 208.000,330.000 206.733,330.000 205.000 C 330.000 203.267,329.831 202.000,329.600 202.000 C 329.380 202.000,329.200 201.722,329.200 201.382 C 329.200 200.582,327.418 198.800,326.618 198.800 C 326.278 198.800,326.000 198.620,326.000 198.400 C 326.000 197.787,294.029 197.906,293.024 198.524 M247.800 204.407 C 253.027 205.096,254.005 205.284,254.226 205.642 C 254.348 205.839,254.966 206.000,255.600 206.000 C 256.234 206.000,256.864 206.180,257.000 206.400 C 257.136 206.620,257.509 206.800,257.828 206.800 C 258.147 206.800,259.262 207.179,260.304 207.642 C 275.345 214.320,284.708 223.737,290.488 238.000 C 290.711 238.550,291.052 239.313,291.247 239.695 C 291.441 240.077,291.600 240.664,291.600 241.000 C 291.600 242.509,293.528 244.689,295.174 245.041 C 299.581 245.983,307.426 249.369,309.115 251.058 C 309.413 251.356,309.809 251.600,309.995 251.600 C 311.604 251.600,319.613 261.311,321.377 265.400 C 321.757 266.280,322.232 267.313,322.434 267.695 C 322.635 268.077,322.800 268.741,322.800 269.171 C 322.800 269.601,322.961 270.052,323.158 270.174 C 324.113 270.764,324.544 284.394,323.721 288.000 C 321.888 296.031,316.344 304.684,310.400 308.794 C 309.630 309.326,308.910 309.860,308.800 309.981 C 307.226 311.706,300.132 314.500,295.000 315.415 C 290.872 316.151,173.854 316.289,169.824 315.563 C 162.859 314.308,157.461 312.147,151.600 308.268 C 148.466 306.194,142.015 300.164,142.006 299.300 C 142.003 299.025,141.859 298.800,141.686 298.800 C 141.514 298.800,141.057 298.267,140.672 297.615 C 140.287 296.963,139.753 296.191,139.486 295.899 C 138.497 294.821,136.732 291.473,135.637 288.600 C 135.134 287.280,134.576 285.840,134.398 285.400 C 134.095 284.650,133.896 283.858,132.825 279.123 C 130.779 270.080,133.761 256.417,139.741 247.438 C 142.811 242.829,150.038 235.600,151.577 235.600 C 151.809 235.600,152.000 235.434,152.000 235.231 C 152.000 234.695,159.742 231.006,162.844 230.064 C 170.180 227.835,179.518 227.413,186.200 229.008 C 192.937 230.617,194.491 230.267,197.261 226.518 C 199.800 223.080,200.369 222.417,203.193 219.594 C 205.956 216.832,210.486 213.324,213.800 211.379 C 215.767 210.225,216.408 209.908,220.000 208.312 C 220.990 207.872,222.113 207.352,222.495 207.156 C 222.877 206.960,223.541 206.800,223.971 206.800 C 224.401 206.800,224.851 206.641,224.971 206.446 C 225.092 206.251,225.687 205.990,226.295 205.864 C 226.903 205.739,228.300 205.438,229.400 205.196 C 230.500 204.955,232.922 204.580,234.782 204.364 C 236.641 204.147,238.261 203.867,238.382 203.741 C 238.621 203.489,243.399 203.827,247.800 204.407 M106.800 248.400 C 106.800 248.620,106.440 248.800,106.000 248.800 C 105.560 248.800,105.200 248.980,105.200 249.200 C 105.200 249.420,104.964 249.600,104.675 249.600 C 104.387 249.600,103.764 249.960,103.292 250.400 C 102.820 250.840,102.156 251.200,101.817 251.200 C 101.478 251.200,101.200 251.380,101.200 251.600 C 101.200 251.820,100.922 252.000,100.583 252.000 C 100.244 252.000,99.580 252.360,99.108 252.800 C 98.636 253.240,98.013 253.600,97.725 253.600 C 97.436 253.600,97.200 253.780,97.200 254.000 C 97.200 254.220,96.840 254.400,96.400 254.400 C 95.960 254.400,95.600 254.536,95.600 254.702 C 95.600 254.869,95.094 255.229,94.475 255.503 C 93.856 255.776,92.964 256.360,92.492 256.800 C 92.020 257.240,91.356 257.600,91.017 257.600 C 90.678 257.600,90.400 257.780,90.400 258.000 C 90.400 258.220,90.053 258.400,89.629 258.400 C 89.204 258.400,88.587 258.670,88.257 259.000 C 87.927 259.330,87.389 259.600,87.062 259.600 C 86.735 259.600,86.407 259.735,86.333 259.900 C 86.260 260.065,85.395 260.639,84.411 261.176 C 82.320 262.316,80.000 264.518,80.000 265.363 C 80.000 265.687,79.820 266.064,79.600 266.200 C 79.380 266.336,79.200 267.247,79.200 268.224 C 79.200 269.201,79.380 270.000,79.600 270.000 C 79.820 270.000,80.000 270.436,80.000 270.969 C 80.000 271.578,80.619 272.545,81.664 273.569 L 83.327 275.200 86.510 275.200 C 89.542 275.200,93.400 273.901,93.933 272.700 C 94.007 272.535,94.412 272.400,94.833 272.400 C 95.255 272.400,95.600 272.220,95.600 272.000 C 95.600 271.780,95.836 271.600,96.125 271.600 C 96.413 271.600,97.036 271.240,97.508 270.800 C 97.980 270.360,98.644 270.000,98.983 270.000 C 99.322 270.000,99.600 269.820,99.600 269.600 C 99.600 269.380,99.960 269.200,100.400 269.200 C 100.840 269.200,101.200 269.020,101.200 268.800 C 101.200 268.580,101.436 268.400,101.725 268.400 C 102.013 268.400,102.636 268.040,103.108 267.600 C 103.580 267.160,104.244 266.800,104.583 266.800 C 104.922 266.800,105.200 266.664,105.200 266.498 C 105.200 266.331,105.706 265.971,106.325 265.697 C 106.944 265.424,107.836 264.840,108.308 264.400 C 108.780 263.960,109.444 263.600,109.783 263.600 C 110.122 263.600,110.400 263.420,110.400 263.200 C 110.400 262.980,110.760 262.800,111.200 262.800 C 111.640 262.800,112.000 262.650,112.000 262.468 C 112.000 262.285,112.494 261.880,113.097 261.568 C 116.003 260.064,116.800 258.697,116.800 255.213 C 116.800 253.338,116.633 252.000,116.400 252.000 C 116.180 252.000,116.000 251.722,116.000 251.382 C 116.000 250.582,114.218 248.800,113.418 248.800 C 113.078 248.800,112.800 248.620,112.800 248.400 C 112.800 248.169,111.533 248.000,109.800 248.000 C 108.067 248.000,106.800 248.169,106.800 248.400 " stroke="none" fill="#241b14" fill-rule="evenodd"></path><path id="path2" d="M231.800 205.267 C 230.920 205.480,229.647 205.823,228.972 206.028 C 228.296 206.232,227.362 206.400,226.895 206.400 C 226.429 206.400,225.936 206.580,225.800 206.800 C 225.664 207.020,225.201 207.200,224.771 207.200 C 224.341 207.200,223.677 207.359,223.295 207.553 C 222.913 207.748,222.150 208.082,221.600 208.297 C 213.260 211.550,203.786 218.906,197.883 226.711 C 194.778 230.816,192.937 231.470,188.120 230.178 C 171.799 225.801,153.264 231.487,143.200 243.959 C 142.430 244.913,141.585 245.920,141.323 246.196 C 139.225 248.401,135.299 257.227,133.938 262.800 C 133.085 266.288,133.216 278.279,134.144 281.800 C 135.482 286.874,138.026 293.177,138.880 293.533 C 139.056 293.607,139.200 293.844,139.200 294.061 C 139.200 294.278,139.779 295.298,140.487 296.328 C 145.132 303.084,153.158 309.598,159.800 312.003 C 160.240 312.163,161.050 312.477,161.600 312.701 C 162.539 313.084,163.472 313.347,167.400 314.337 C 171.966 315.488,177.610 315.600,231.224 315.600 C 284.389 315.600,292.879 315.439,297.000 314.355 C 300.870 313.337,301.939 312.963,304.200 311.839 C 311.353 308.284,316.786 302.856,320.083 295.971 C 321.915 292.146,322.268 291.081,323.559 285.494 C 324.126 283.042,324.126 276.958,323.559 274.506 C 322.824 271.324,322.325 269.441,321.994 268.600 C 317.249 256.531,307.998 248.718,294.892 245.712 C 293.570 245.409,291.200 242.887,291.200 241.784 C 291.200 241.269,291.020 240.736,290.800 240.600 C 290.580 240.464,290.398 240.048,290.396 239.676 C 290.394 239.304,289.429 237.020,288.252 234.600 C 280.888 219.463,267.359 208.901,251.000 205.520 C 248.328 204.968,233.819 204.776,231.800 205.267 " stroke="none" fill="#fbfbfb" fill-rule="evenodd"></path><path id="path3" d="M236.800 204.431 C 235.111 204.581,236.570 204.686,240.967 204.731 C 244.688 204.769,247.652 204.718,247.552 204.618 C 247.250 204.317,239.585 204.184,236.800 204.431 M230.800 205.200 C 229.433 205.488,229.428 205.495,230.600 205.519 C 231.260 205.533,232.160 205.389,232.600 205.200 C 233.562 204.787,232.764 204.787,230.800 205.200 M249.000 205.180 C 249.761 205.526,252.717 205.764,252.367 205.451 C 252.275 205.369,251.300 205.193,250.200 205.059 C 248.854 204.895,248.461 204.935,249.000 205.180 M227.200 206.000 L 226.200 206.320 227.200 206.354 C 227.750 206.373,228.470 206.213,228.800 206.000 C 229.564 205.506,228.742 205.506,227.200 206.000 M253.200 205.982 C 253.530 206.205,254.145 206.391,254.567 206.394 C 255.590 206.402,255.271 206.173,253.800 205.844 C 252.924 205.648,252.762 205.685,253.200 205.982 M255.600 206.546 C 255.600 206.733,259.389 208.008,259.875 207.984 C 260.346 207.962,257.992 206.978,256.700 206.657 C 256.095 206.507,255.600 206.457,255.600 206.546 M221.870 207.781 C 220.107 208.409,219.586 208.800,220.510 208.800 C 220.863 208.800,221.264 208.620,221.400 208.400 C 221.536 208.180,221.986 208.000,222.400 208.000 C 222.814 208.000,223.264 207.820,223.400 207.600 C 223.700 207.115,223.755 207.109,221.870 207.781 M260.400 208.189 C 260.400 208.506,263.300 209.633,263.528 209.405 C 263.641 209.292,263.635 209.200,263.516 209.200 C 263.396 209.200,262.646 208.928,261.849 208.595 C 261.052 208.262,260.400 208.079,260.400 208.189 M216.593 210.247 C 211.249 213.033,206.311 216.760,202.116 221.173 C 198.847 224.612,199.855 223.927,204.018 219.882 C 208.128 215.888,212.152 212.941,216.700 210.596 C 219.191 209.311,219.984 208.800,219.484 208.800 C 219.421 208.800,218.119 209.451,216.593 210.247 M264.400 209.997 C 266.618 211.565,271.959 214.605,270.917 213.706 C 270.212 213.098,268.322 211.919,266.717 211.087 C 265.113 210.254,264.070 209.764,264.400 209.997 M272.400 214.925 C 272.400 215.023,273.255 215.791,274.300 216.632 C 275.345 217.472,275.840 217.745,275.400 217.237 C 274.574 216.283,272.400 214.608,272.400 214.925 M277.207 218.898 C 277.203 219.062,278.145 220.201,279.300 221.429 C 283.641 226.046,290.383 237.132,290.396 239.676 C 290.398 240.048,290.568 240.457,290.774 240.584 C 291.502 241.034,290.263 237.656,288.171 233.488 C 285.847 228.858,277.240 217.404,277.207 218.898 M198.496 225.405 C 197.332 227.203,197.600 227.200,198.973 225.400 C 199.560 224.630,199.897 224.002,199.720 224.005 C 199.544 224.008,198.993 224.638,198.496 225.405 M196.485 228.013 C 195.070 230.278,192.206 230.880,188.120 229.770 C 184.688 228.837,176.970 228.083,174.200 228.409 L 171.800 228.692 175.000 228.679 C 179.395 228.661,183.611 229.123,187.355 230.033 C 191.110 230.946,192.863 230.997,194.320 230.236 C 195.541 229.598,197.951 227.200,197.371 227.200 C 197.163 227.200,196.764 227.566,196.485 228.013 M166.800 229.263 C 162.485 230.440,159.097 231.630,159.348 231.881 C 159.439 231.972,160.118 231.795,160.857 231.488 C 162.551 230.783,168.549 229.266,170.400 229.074 C 171.545 228.954,171.473 228.924,170.000 228.905 C 169.010 228.892,167.570 229.053,166.800 229.263 M155.500 233.429 C 153.949 234.270,154.125 234.561,155.700 233.759 C 157.208 232.993,157.475 232.794,156.967 232.816 C 156.765 232.825,156.105 233.101,155.500 233.429 M152.400 235.312 C 146.280 239.191,140.752 245.411,137.354 252.241 C 136.122 254.717,135.188 256.965,135.278 257.235 C 135.369 257.506,135.777 256.852,136.185 255.783 C 137.227 253.056,140.361 247.207,141.321 246.197 C 141.584 245.921,142.430 244.913,143.200 243.959 C 145.659 240.911,148.690 238.237,153.214 235.121 C 154.654 234.129,154.038 234.274,152.400 235.312 M291.259 241.800 C 291.224 242.636,292.059 244.000,292.606 244.000 C 292.781 244.000,292.645 243.685,292.303 243.300 C 291.962 242.915,291.595 242.240,291.488 241.800 L 291.293 241.000 291.259 241.800 M293.411 244.924 C 294.166 245.426,296.271 246.128,298.400 246.588 C 299.914 246.915,298.261 246.216,296.000 245.573 C 295.010 245.291,294.029 244.912,293.820 244.730 C 293.611 244.549,293.256 244.400,293.031 244.400 C 292.806 244.400,292.977 244.636,293.411 244.924 M301.600 247.752 C 302.810 248.256,304.385 248.973,305.100 249.345 C 305.815 249.717,306.400 249.914,306.400 249.784 C 306.400 249.462,300.583 246.796,299.926 246.817 C 299.637 246.826,300.390 247.247,301.600 247.752 M307.590 250.691 C 308.134 251.081,309.394 251.993,310.390 252.717 L 312.200 254.034 310.600 252.581 C 309.720 251.782,308.460 250.870,307.800 250.555 L 306.600 249.982 307.590 250.691 M312.400 254.132 C 312.400 254.540,315.214 257.319,315.419 257.114 C 315.511 257.023,314.869 256.248,313.993 255.393 C 313.117 254.537,312.400 253.970,312.400 254.132 M317.350 259.975 C 318.887 262.063,321.138 266.240,321.998 268.600 C 322.772 270.725,323.203 272.345,323.228 273.228 C 323.244 273.763,323.419 274.560,323.619 275.000 C 324.389 276.701,323.295 270.935,322.404 268.600 C 320.839 264.500,316.772 257.624,315.901 257.606 C 315.736 257.603,316.388 258.669,317.350 259.975 M134.600 258.800 C 134.450 259.273,134.417 259.750,134.527 259.860 C 134.637 259.970,134.850 259.673,135.000 259.200 C 135.150 258.727,135.183 258.250,135.073 258.140 C 134.963 258.030,134.750 258.327,134.600 258.800 M133.849 261.415 C 133.712 261.773,133.616 262.456,133.636 262.933 C 133.662 263.547,133.785 263.408,134.059 262.456 C 134.457 261.072,134.294 260.258,133.849 261.415 M133.050 265.650 C 132.728 267.259,132.799 277.512,133.140 278.725 C 133.283 279.234,133.400 276.219,133.400 272.025 C 133.400 267.831,133.378 264.400,133.350 264.400 C 133.322 264.400,133.188 264.963,133.050 265.650 M324.148 280.000 C 324.148 282.310,324.214 283.255,324.295 282.100 C 324.376 280.945,324.376 279.055,324.295 277.900 C 324.214 276.745,324.148 277.690,324.148 280.000 M133.656 281.000 C 133.656 281.440,133.811 282.160,134.000 282.600 L 134.344 283.400 134.344 282.600 C 134.344 282.160,134.189 281.440,134.000 281.000 L 133.656 280.200 133.656 281.000 M134.456 284.000 C 134.456 284.330,134.611 284.960,134.800 285.400 C 135.017 285.904,135.144 285.978,135.144 285.600 C 135.144 285.270,134.989 284.640,134.800 284.200 C 134.583 283.696,134.456 283.622,134.456 284.000 M323.400 285.900 C 322.581 291.114,319.980 297.198,316.746 301.471 C 315.693 302.862,314.960 303.999,315.116 303.998 C 316.258 303.989,321.373 294.931,322.681 290.600 C 323.544 287.745,324.160 284.400,323.823 284.400 C 323.720 284.400,323.530 285.075,323.400 285.900 M139.144 294.900 C 143.155 301.240,149.610 307.387,155.200 310.189 C 157.050 311.117,156.247 310.320,154.200 309.198 C 148.968 306.328,139.200 296.450,139.200 294.028 C 139.200 293.793,139.002 293.600,138.761 293.600 C 138.519 293.600,138.692 294.185,139.144 294.900 M313.286 305.424 C 312.783 305.961,312.527 306.400,312.716 306.400 C 312.906 306.400,313.483 305.950,314.000 305.400 C 314.517 304.850,314.773 304.411,314.570 304.424 C 314.366 304.438,313.789 304.888,313.286 305.424 M309.800 308.433 C 308.700 309.296,306.495 310.657,304.900 311.458 C 301.776 313.028,301.073 313.595,303.500 312.588 C 306.219 311.461,313.340 306.725,312.156 306.832 C 311.960 306.850,310.900 307.570,309.800 308.433 M163.000 313.600 C 164.196 314.114,165.195 314.114,164.400 313.600 C 164.070 313.387,163.440 313.222,163.000 313.234 L 162.200 313.256 163.000 313.600 M166.000 314.400 C 167.542 314.894,168.364 314.894,167.600 314.400 C 167.270 314.187,166.550 314.027,166.000 314.046 L 165.000 314.080 166.000 314.400 M296.800 314.400 C 296.005 314.914,297.004 314.914,298.200 314.400 L 299.000 314.056 298.200 314.034 C 297.760 314.022,297.130 314.187,296.800 314.400 M170.200 315.200 C 170.860 315.368,172.210 315.504,173.200 315.503 L 175.000 315.500 173.200 315.180 C 172.210 315.003,170.860 314.867,170.200 314.877 L 169.000 314.895 170.200 315.200 M290.200 315.200 L 287.800 315.466 290.000 315.510 C 291.210 315.534,292.920 315.405,293.800 315.223 L 295.400 314.892 294.000 314.913 C 293.230 314.925,291.520 315.054,290.200 315.200 " stroke="none" fill="#a29a9a" fill-rule="evenodd"></path><path id="path4" d="M194.331 139.794 C 194.183 139.946,192.293 140.231,190.131 140.425 C 184.648 140.919,182.661 141.224,182.220 141.641 C 182.011 141.838,181.257 142.000,180.544 142.000 C 179.831 142.000,179.136 142.180,179.000 142.400 C 178.864 142.620,178.324 142.800,177.800 142.800 C 177.276 142.800,176.736 142.980,176.600 143.200 C 176.293 143.696,176.299 143.696,178.003 143.163 C 186.067 140.640,199.751 139.711,206.800 141.209 C 213.530 142.639,218.899 144.213,221.337 145.472 C 221.963 145.795,222.573 145.961,222.693 145.841 C 222.813 145.721,222.391 145.426,221.755 145.187 C 221.120 144.947,220.077 144.492,219.439 144.175 C 218.800 143.859,217.955 143.600,217.562 143.600 C 217.169 143.600,216.736 143.420,216.600 143.200 C 216.464 142.980,215.924 142.800,215.400 142.800 C 214.876 142.800,214.336 142.620,214.200 142.400 C 214.064 142.180,213.344 142.000,212.600 142.000 C 211.856 142.000,211.150 141.843,211.032 141.652 C 210.817 141.304,209.242 141.038,203.600 140.398 C 197.619 139.719,194.595 139.522,194.331 139.794 M174.200 144.000 C 173.908 144.473,174.299 144.473,175.400 144.000 C 176.171 143.669,176.169 143.655,175.324 143.628 C 174.842 143.613,174.336 143.780,174.200 144.000 M170.462 145.452 C 169.286 146.005,168.403 146.536,168.499 146.632 C 168.595 146.729,169.828 146.274,171.237 145.622 C 172.647 144.970,173.530 144.439,173.200 144.442 C 172.870 144.445,171.638 144.900,170.462 145.452 M224.600 146.856 C 236.609 153.018,247.568 163.496,253.010 174.020 C 253.367 174.710,253.748 175.185,253.857 175.076 C 254.640 174.294,247.149 163.953,242.203 158.988 C 237.095 153.860,225.654 145.937,223.475 146.018 C 223.214 146.027,223.720 146.405,224.600 146.856 M164.390 148.513 C 157.478 152.471,148.495 159.929,146.260 163.564 C 145.910 164.134,144.984 165.320,144.203 166.200 C 143.423 167.080,142.564 168.295,142.294 168.900 C 142.025 169.505,141.697 170.000,141.565 170.000 C 141.434 170.000,140.895 170.855,140.368 171.900 C 139.842 172.945,139.316 173.890,139.200 174.000 C 138.644 174.528,135.942 180.694,134.907 183.800 C 132.996 189.533,131.050 199.059,132.373 196.200 C 132.577 195.760,132.756 194.783,132.772 194.028 C 132.787 193.274,132.968 192.104,133.173 191.428 C 133.378 190.753,133.762 189.390,134.026 188.400 C 137.719 174.573,145.942 162.238,157.016 153.916 C 160.622 151.206,162.324 150.000,162.539 150.000 C 162.634 150.000,163.943 149.280,165.449 148.400 C 166.955 147.520,168.006 146.800,167.784 146.800 C 167.562 146.800,166.035 147.571,164.390 148.513 M254.800 177.350 C 254.800 177.433,255.225 178.468,255.744 179.650 C 256.750 181.939,257.973 185.450,258.793 188.400 C 259.068 189.390,259.452 190.722,259.647 191.360 C 260.253 193.349,260.108 194.531,259.300 194.193 C 255.624 192.654,244.783 191.449,237.800 191.802 C 231.140 192.139,227.262 192.884,220.000 195.218 C 209.533 198.584,198.289 206.243,190.502 215.311 L 189.204 216.823 186.102 216.335 C 182.255 215.730,171.094 215.711,167.600 216.303 C 165.139 216.721,163.632 217.059,160.400 217.919 C 158.541 218.414,156.062 219.526,156.726 219.567 C 157.016 219.585,157.569 219.431,157.955 219.224 C 162.713 216.677,175.558 215.449,184.692 216.667 C 189.571 217.318,189.703 217.315,190.112 216.567 C 192.536 212.130,205.063 202.255,212.695 198.765 C 217.651 196.498,217.630 196.507,219.400 195.945 C 220.280 195.665,221.171 195.293,221.380 195.118 C 221.589 194.943,222.253 194.800,222.856 194.800 C 223.459 194.800,224.052 194.639,224.174 194.442 C 224.295 194.245,225.071 193.986,225.897 193.865 C 226.724 193.745,228.480 193.419,229.800 193.141 C 231.358 192.813,235.429 192.643,241.400 192.659 C 249.956 192.681,252.465 192.895,256.600 193.954 C 260.687 195.002,260.400 195.030,260.400 193.575 C 260.400 192.850,260.232 191.704,260.027 191.028 C 259.822 190.353,259.444 188.990,259.188 188.000 C 258.932 187.010,258.560 185.887,258.361 185.505 C 258.162 185.123,258.000 184.536,258.000 184.200 C 258.000 183.864,257.841 183.277,257.647 182.895 C 257.452 182.513,257.111 181.750,256.887 181.200 C 255.577 177.972,254.800 176.539,254.800 177.350 M131.461 201.900 C 131.327 204.485,131.368 208.130,131.552 210.000 C 131.840 212.939,131.893 212.302,131.943 205.300 C 132.007 196.199,131.822 194.891,131.461 201.900 M237.200 203.988 C 236.358 204.157,237.794 204.271,240.800 204.272 C 243.698 204.273,245.296 204.152,244.600 203.984 C 243.079 203.617,239.028 203.619,237.200 203.988 M231.200 204.812 C 230.781 205.091,231.142 205.133,232.400 204.950 C 234.641 204.625,234.960 204.398,233.167 204.406 C 232.415 204.409,231.530 204.592,231.200 204.812 M247.633 204.544 C 247.725 204.624,248.610 204.806,249.600 204.950 C 250.858 205.133,251.219 205.091,250.800 204.812 C 250.260 204.453,247.232 204.197,247.633 204.544 M227.600 205.618 C 227.162 205.915,227.324 205.952,228.200 205.756 C 229.671 205.427,229.990 205.198,228.967 205.206 C 228.545 205.209,227.930 205.395,227.600 205.618 M253.000 205.600 C 254.101 206.073,254.492 206.073,254.200 205.600 C 254.064 205.380,253.558 205.213,253.076 205.228 C 252.231 205.255,252.229 205.269,253.000 205.600 M255.800 206.400 C 256.901 206.873,257.292 206.873,257.000 206.400 C 256.864 206.180,256.358 206.013,255.876 206.028 C 255.031 206.055,255.029 206.069,255.800 206.400 M214.800 210.833 L 213.800 211.648 215.100 211.014 C 215.815 210.665,216.400 210.294,216.400 210.190 C 216.400 209.792,215.763 210.048,214.800 210.833 M266.800 210.990 C 266.800 211.094,267.385 211.465,268.100 211.814 L 269.400 212.448 268.400 211.633 C 267.437 210.848,266.800 210.592,266.800 210.990 M211.145 213.066 C 206.192 216.453,199.600 222.538,199.600 223.724 C 199.600 223.909,200.095 223.464,200.700 222.734 C 203.229 219.682,208.022 215.476,211.500 213.257 C 213.381 212.057,213.917 211.600,213.445 211.600 C 213.360 211.600,212.325 212.260,211.145 213.066 M271.800 214.186 C 274.897 216.845,276.360 218.000,276.630 218.000 C 277.048 218.000,274.954 216.213,272.600 214.560 C 271.500 213.788,271.140 213.620,271.800 214.186 M132.187 215.600 C 132.871 221.030,136.177 231.600,137.191 231.600 C 137.494 231.600,139.790 229.819,140.800 228.800 C 142.422 227.164,147.309 224.041,151.517 221.950 C 152.901 221.263,153.954 220.621,153.858 220.524 C 153.257 219.923,143.520 225.844,139.807 229.069 C 137.061 231.453,137.110 231.475,135.610 227.200 C 135.340 226.430,134.971 225.440,134.790 225.000 C 134.609 224.560,134.349 223.660,134.212 223.000 C 134.076 222.340,133.781 221.080,133.557 220.200 C 133.332 219.320,132.999 217.553,132.815 216.274 C 132.631 214.994,132.352 213.824,132.195 213.674 C 132.038 213.523,132.034 214.390,132.187 215.600 M280.895 222.729 C 281.887 223.790,283.558 225.950,284.608 227.529 C 286.620 230.555,287.501 231.449,285.957 228.900 C 284.248 226.077,279.975 220.800,279.399 220.800 C 279.229 220.800,279.902 221.668,280.895 222.729 M197.874 225.633 C 197.255 226.495,196.895 227.198,197.074 227.195 C 197.430 227.190,199.338 224.404,199.129 224.195 C 199.058 224.125,198.493 224.772,197.874 225.633 M195.978 228.226 C 194.867 229.566,193.135 230.105,190.625 229.892 C 189.180 229.770,188.523 229.820,189.000 230.015 C 190.282 230.542,193.147 230.448,194.321 229.841 C 195.342 229.313,197.169 227.600,196.711 227.600 C 196.594 227.600,196.264 227.882,195.978 228.226 M170.200 228.418 C 169.484 228.611,170.371 228.652,172.400 228.519 C 174.270 228.397,175.875 228.230,175.967 228.149 C 176.282 227.867,171.398 228.095,170.200 228.418 M177.633 228.151 C 177.725 228.235,179.240 228.404,181.000 228.527 C 183.350 228.692,183.775 228.658,182.600 228.399 C 181.006 228.047,177.316 227.864,177.633 228.151 M166.000 229.200 C 165.196 229.457,165.157 229.523,165.800 229.532 C 166.240 229.538,166.960 229.389,167.400 229.200 C 168.419 228.762,167.368 228.762,166.000 229.200 M185.800 229.200 C 186.240 229.389,186.960 229.538,187.400 229.532 C 188.043 229.523,188.004 229.457,187.200 229.200 C 185.832 228.762,184.781 228.762,185.800 229.200 M160.800 230.675 C 158.889 231.352,152.000 234.921,152.000 235.236 C 152.000 235.442,152.719 235.156,153.598 234.602 C 154.476 234.047,156.321 233.090,157.698 232.475 C 159.074 231.860,160.650 231.153,161.200 230.905 C 162.208 230.451,161.914 230.281,160.800 230.675 M287.400 232.000 C 287.741 232.660,288.111 233.200,288.221 233.200 C 288.331 233.200,288.141 232.660,287.800 232.000 C 287.459 231.340,287.089 230.800,286.979 230.800 C 286.869 230.800,287.059 231.340,287.400 232.000 M149.964 236.513 C 149.394 237.001,148.410 237.805,147.777 238.300 C 147.144 238.795,146.800 239.196,147.013 239.191 C 147.226 239.187,148.363 238.377,149.540 237.391 C 150.717 236.406,151.527 235.606,151.340 235.613 C 151.153 235.620,150.534 236.025,149.964 236.513 M143.400 242.520 C 142.096 244.118,141.990 244.454,143.115 243.425 C 143.822 242.779,144.400 242.194,144.400 242.125 C 144.400 241.822,143.765 242.074,143.400 242.520 M296.000 245.600 C 296.330 245.813,296.960 245.978,297.400 245.966 L 298.200 245.944 297.400 245.600 C 296.204 245.086,295.205 245.086,296.000 245.600 M298.800 246.400 C 299.130 246.613,299.670 246.788,300.000 246.788 C 300.533 246.788,300.533 246.745,300.000 246.400 C 299.670 246.187,299.130 246.012,298.800 246.012 C 298.267 246.012,298.267 246.055,298.800 246.400 M304.566 248.761 C 306.747 249.883,308.582 250.751,308.643 250.690 C 308.819 250.515,302.716 247.321,301.600 247.004 C 301.050 246.848,302.385 247.639,304.566 248.761 M138.614 249.035 C 138.241 249.604,138.005 250.138,138.089 250.222 C 138.173 250.307,138.558 249.841,138.944 249.188 C 139.806 247.728,139.548 247.609,138.614 249.035 M310.600 252.532 C 311.480 253.321,312.363 253.974,312.562 253.983 C 313.015 254.004,310.881 252.107,309.800 251.527 C 309.360 251.291,309.720 251.743,310.600 252.532 M314.425 255.831 C 315.181 256.728,315.881 257.397,315.980 257.317 C 316.079 257.238,315.460 256.504,314.605 255.687 L 313.050 254.200 314.425 255.831 M134.950 256.700 C 134.280 258.785,134.055 259.545,133.678 261.000 C 132.663 264.919,132.400 267.196,132.400 272.053 C 132.400 274.909,132.591 278.090,132.825 279.123 C 134.263 285.482,134.348 285.785,134.608 285.525 C 134.712 285.421,134.548 284.450,134.244 283.368 C 132.968 278.824,132.724 276.494,132.926 270.773 C 133.147 264.524,133.437 262.760,135.139 257.300 C 135.362 256.585,135.461 256.000,135.360 256.000 C 135.258 256.000,135.074 256.315,134.950 256.700 M319.603 262.490 C 319.601 262.650,319.959 263.370,320.399 264.090 C 320.838 264.811,321.196 265.220,321.196 265.000 C 321.195 264.780,320.837 264.060,320.400 263.400 C 319.963 262.740,319.604 262.331,319.603 262.490 M323.646 273.600 C 323.665 273.930,323.824 274.650,324.000 275.200 L 324.320 276.200 324.354 275.200 C 324.373 274.650,324.213 273.930,324.000 273.600 C 323.655 273.067,323.616 273.067,323.646 273.600 M324.049 284.400 C 324.016 284.730,323.889 285.450,323.767 286.000 C 323.575 286.864,323.607 286.903,323.999 286.288 C 324.248 285.897,324.375 285.177,324.281 284.688 C 324.186 284.200,324.082 284.070,324.049 284.400 M134.817 286.251 C 134.782 287.185,137.833 293.850,138.478 294.248 C 138.685 294.376,138.364 293.518,137.764 292.340 C 137.164 291.163,136.260 289.210,135.754 288.000 C 135.248 286.790,134.826 286.003,134.817 286.251 M318.020 300.369 C 317.325 301.452,316.496 302.554,316.178 302.818 C 315.860 303.082,315.600 303.481,315.600 303.705 C 315.600 304.178,317.919 301.322,318.945 299.585 C 320.093 297.642,319.384 298.243,318.020 300.369 M146.307 303.926 C 148.163 305.755,149.781 307.152,149.902 307.031 C 150.023 306.910,149.600 306.409,148.961 305.918 C 148.322 305.427,146.705 304.030,145.366 302.813 C 144.028 301.596,144.451 302.097,146.307 303.926 M155.600 310.596 C 155.600 310.870,158.049 312.084,158.232 311.901 C 158.319 311.814,157.762 311.444,156.995 311.078 C 156.228 310.712,155.600 310.495,155.600 310.596 M163.200 313.982 C 163.530 314.205,164.145 314.391,164.567 314.394 C 165.590 314.402,165.271 314.173,163.800 313.844 C 162.924 313.648,162.762 313.685,163.200 313.982 M298.800 314.221 C 297.810 314.533,296.550 314.815,296.000 314.848 C 295.112 314.902,295.097 314.928,295.861 315.077 C 296.680 315.237,301.200 314.132,301.200 313.772 C 301.200 313.517,300.789 313.594,298.800 314.221 M166.000 314.788 C 166.330 315.008,167.215 315.191,167.967 315.194 C 169.760 315.202,169.441 314.975,167.200 314.650 C 165.942 314.467,165.581 314.509,166.000 314.788 M170.476 315.660 C 171.666 315.995,292.216 315.988,293.778 315.653 C 294.425 315.514,266.740 315.400,232.254 315.400 C 197.768 315.400,169.969 315.517,170.476 315.660 " stroke="none" fill="#544c4c" fill-rule="evenodd"></path></g></svg>